<mxfile host="app.diagrams.net" modified="2023-03-22T13:26:05.160Z" agent="5.0 (Macintosh; Intel Mac OS X 10_15_7) AppleWebKit/537.36 (KHTML, like Gecko) Chrome/110.0.0.0 Safari/537.36" etag="Uzqjv2DsxkHAQSqC3buD" version="21.0.10" type="github">
  <diagram name="第 1 页" id="nJ1LQy9mA8K3CSrHPphK">
    <mxGraphModel dx="1781" dy="622" grid="1" gridSize="10" guides="1" tooltips="1" connect="1" arrows="1" fold="1" page="1" pageScale="1" pageWidth="827" pageHeight="1169" math="0" shadow="0">
      <root>
        <mxCell id="0" />
        <mxCell id="1" parent="0" />
        <mxCell id="fWoslMgB8ViMrF39MOSe-1" value="" style="rounded=0;whiteSpace=wrap;html=1;" vertex="1" parent="1">
          <mxGeometry x="-120" y="240" width="960" height="410" as="geometry" />
        </mxCell>
        <mxCell id="fWoslMgB8ViMrF39MOSe-7" style="edgeStyle=orthogonalEdgeStyle;rounded=0;orthogonalLoop=1;jettySize=auto;html=1;dashed=1;curved=1;" edge="1" parent="1" source="X_VfzrurMj-AFEdXA4be-1" target="X_VfzrurMj-AFEdXA4be-12">
          <mxGeometry relative="1" as="geometry" />
        </mxCell>
        <mxCell id="X_VfzrurMj-AFEdXA4be-1" value="" style="rounded=1;whiteSpace=wrap;html=1;" parent="1" vertex="1">
          <mxGeometry x="190" y="330" width="240" height="170" as="geometry" />
        </mxCell>
        <mxCell id="X_VfzrurMj-AFEdXA4be-2" value="proxy" style="rounded=0;whiteSpace=wrap;html=1;" parent="1" vertex="1">
          <mxGeometry x="230" y="342" width="120" height="60" as="geometry" />
        </mxCell>
        <mxCell id="X_VfzrurMj-AFEdXA4be-3" value="App" style="rounded=0;whiteSpace=wrap;html=1;" parent="1" vertex="1">
          <mxGeometry x="230" y="430" width="120" height="60" as="geometry" />
        </mxCell>
        <mxCell id="X_VfzrurMj-AFEdXA4be-4" value="Pod" style="text;html=1;strokeColor=none;fillColor=none;align=center;verticalAlign=middle;whiteSpace=wrap;rounded=0;" parent="1" vertex="1">
          <mxGeometry x="370" y="410" width="60" height="30" as="geometry" />
        </mxCell>
        <mxCell id="fWoslMgB8ViMrF39MOSe-8" style="edgeStyle=orthogonalEdgeStyle;rounded=0;orthogonalLoop=1;jettySize=auto;html=1;exitX=0.5;exitY=1;exitDx=0;exitDy=0;elbow=vertical;curved=1;dashed=1;" edge="1" parent="1" source="X_VfzrurMj-AFEdXA4be-5">
          <mxGeometry relative="1" as="geometry">
            <mxPoint x="360" y="720" as="targetPoint" />
          </mxGeometry>
        </mxCell>
        <mxCell id="X_VfzrurMj-AFEdXA4be-5" value="" style="rounded=1;whiteSpace=wrap;html=1;" parent="1" vertex="1">
          <mxGeometry x="530" y="330" width="240" height="170" as="geometry" />
        </mxCell>
        <mxCell id="X_VfzrurMj-AFEdXA4be-6" value="proxy" style="rounded=0;whiteSpace=wrap;html=1;" parent="1" vertex="1">
          <mxGeometry x="570" y="350" width="120" height="60" as="geometry" />
        </mxCell>
        <mxCell id="X_VfzrurMj-AFEdXA4be-7" value="App" style="rounded=0;whiteSpace=wrap;html=1;" parent="1" vertex="1">
          <mxGeometry x="570" y="430" width="120" height="60" as="geometry" />
        </mxCell>
        <mxCell id="X_VfzrurMj-AFEdXA4be-8" value="Pod" style="text;html=1;strokeColor=none;fillColor=none;align=center;verticalAlign=middle;whiteSpace=wrap;rounded=0;" parent="1" vertex="1">
          <mxGeometry x="710" y="410" width="60" height="30" as="geometry" />
        </mxCell>
        <mxCell id="fWoslMgB8ViMrF39MOSe-6" style="edgeStyle=orthogonalEdgeStyle;rounded=0;orthogonalLoop=1;jettySize=auto;html=1;exitX=0.5;exitY=1;exitDx=0;exitDy=0;entryX=0.5;entryY=0;entryDx=0;entryDy=0;" edge="1" parent="1" source="X_VfzrurMj-AFEdXA4be-9" target="X_VfzrurMj-AFEdXA4be-10">
          <mxGeometry relative="1" as="geometry" />
        </mxCell>
        <mxCell id="X_VfzrurMj-AFEdXA4be-9" value="Aeraki" style="rounded=1;whiteSpace=wrap;html=1;" parent="1" vertex="1">
          <mxGeometry x="-30" y="294" width="120" height="60" as="geometry" />
        </mxCell>
        <mxCell id="X_VfzrurMj-AFEdXA4be-10" value="Istiod" style="rounded=1;whiteSpace=wrap;html=1;" parent="1" vertex="1">
          <mxGeometry x="-30" y="394" width="120" height="60" as="geometry" />
        </mxCell>
        <mxCell id="fWoslMgB8ViMrF39MOSe-4" style="edgeStyle=orthogonalEdgeStyle;rounded=0;orthogonalLoop=1;jettySize=auto;html=1;exitX=0.5;exitY=0;exitDx=0;exitDy=0;entryX=0.5;entryY=1;entryDx=0;entryDy=0;" edge="1" parent="1" source="X_VfzrurMj-AFEdXA4be-11" target="X_VfzrurMj-AFEdXA4be-10">
          <mxGeometry relative="1" as="geometry" />
        </mxCell>
        <mxCell id="fWoslMgB8ViMrF39MOSe-11" style="edgeStyle=orthogonalEdgeStyle;rounded=0;orthogonalLoop=1;jettySize=auto;html=1;entryX=0;entryY=0.5;entryDx=0;entryDy=0;dashed=1;curved=1;" edge="1" parent="1" source="X_VfzrurMj-AFEdXA4be-11" target="X_VfzrurMj-AFEdXA4be-12">
          <mxGeometry relative="1" as="geometry" />
        </mxCell>
        <mxCell id="X_VfzrurMj-AFEdXA4be-11" value="Dubbo2Istio" style="rounded=1;whiteSpace=wrap;html=1;" parent="1" vertex="1">
          <mxGeometry x="-30" y="499" width="120" height="60" as="geometry" />
        </mxCell>
        <mxCell id="X_VfzrurMj-AFEdXA4be-12" value="Nacos" style="rounded=1;whiteSpace=wrap;html=1;" parent="1" vertex="1">
          <mxGeometry x="300" y="720" width="120" height="60" as="geometry" />
        </mxCell>
        <mxCell id="X_VfzrurMj-AFEdXA4be-14" value="" style="sketch=0;html=1;dashed=0;whitespace=wrap;fillColor=#2875E2;strokeColor=#ffffff;points=[[0.005,0.63,0],[0.1,0.2,0],[0.9,0.2,0],[0.5,0,0],[0.995,0.63,0],[0.72,0.99,0],[0.5,1,0],[0.28,0.99,0]];verticalLabelPosition=bottom;align=center;verticalAlign=top;shape=mxgraph.kubernetes.icon;prIcon=pod" parent="1" vertex="1">
          <mxGeometry x="375" y="442" width="50" height="48" as="geometry" />
        </mxCell>
        <mxCell id="X_VfzrurMj-AFEdXA4be-15" value="" style="sketch=0;html=1;dashed=0;whitespace=wrap;fillColor=#2875E2;strokeColor=#ffffff;points=[[0.005,0.63,0],[0.1,0.2,0],[0.9,0.2,0],[0.5,0,0],[0.995,0.63,0],[0.72,0.99,0],[0.5,1,0],[0.28,0.99,0]];verticalLabelPosition=bottom;align=center;verticalAlign=top;shape=mxgraph.kubernetes.icon;prIcon=pod" parent="1" vertex="1">
          <mxGeometry x="710" y="440" width="50" height="48" as="geometry" />
        </mxCell>
      </root>
    </mxGraphModel>
  </diagram>
</mxfile>
